<?xml version="1.0" encoding="UTF-8"?>
<!DOCTYPE svg PUBLIC "-//W3C//DTD SVG 1.1//EN" "http://www.w3.org/Graphics/SVG/1.1/DTD/svg11.dtd">
<svg version="1.1" xmlns="http://www.w3.org/2000/svg" xmlns:xlink="http://www.w3.org/1999/xlink" x="0" y="0" width="512" height="512" viewBox="0, 0, 512, 512">
  <g id="Background">
    <rect x="0" y="0" width="512" height="512" fill="#000000" fill-opacity="0"/>
  </g>
  <g id="Copie_Calque_1">
    <path d="M219.326,382.186 L187.123,414.405 C162.17,439.343 121.56,439.343 96.607,414.405 C71.654,389.436 71.654,348.842 96.607,323.874 L187.123,233.374 C212.092,208.405 252.67,208.405 277.623,233.374 C285.42,241.171 290.498,250.577 293.436,260.499 C295.811,259.124 298.249,257.999 300.249,255.999 L342.312,213.952 C336.937,204.796 330.749,195.983 322.874,188.124 C272.905,138.14 191.843,138.14 141.858,188.124 L51.358,278.624 C1.374,328.624 1.374,409.655 51.358,459.655 C101.342,509.624 182.389,509.624 232.374,459.655 L300.968,391.061 C273.561,395.092 245.42,392.342 219.326,382.186 z" fill="#34A5DA"/>
    <path d="M458.654,233.373 L368.123,323.873 C318.154,373.873 237.092,373.873 187.123,323.873 C179.248,316.029 173.092,307.185 167.685,298.06 L209.748,255.997 C211.748,253.981 214.217,252.825 216.576,251.466 C219.482,261.404 224.56,270.81 232.373,278.622 C257.326,303.591 297.936,303.56 322.873,278.622 L413.373,188.122 C438.342,163.153 438.342,122.559 413.373,97.606 C388.435,72.653 347.842,72.653 322.873,97.606 L290.685,129.825 C264.576,119.653 236.435,116.919 209.044,120.934 L277.622,52.356 C327.622,2.372 408.653,2.372 458.653,52.356 C508.623,102.342 508.623,183.389 458.654,233.373 z" fill="#1D9916"/>
  </g>
</svg>
