<?xml version="1.0" encoding="UTF-8"?>
<!DOCTYPE svg PUBLIC "-//W3C//DTD SVG 1.1//EN" "http://www.w3.org/Graphics/SVG/1.1/DTD/svg11.dtd">
<svg version="1.1" xmlns="http://www.w3.org/2000/svg" xmlns:xlink="http://www.w3.org/1999/xlink" x="0" y="0" width="396.85" height="342.903" viewBox="0, 0, 396.85, 342.903">
    <script type="text/ecmascript">
    <![CDATA[
      // Format a number over a 2-digit string (7 => 07)
      function FormatNumber(n){
          return n > 9 ? "" + n: "0" + n;
      }

      // Time out to wait
      function sleep(ms) {
        return new Promise(resolve => setTimeout(resolve, ms));
      }

      // Async is requiered for time out to work
      async function click(evt) {
        alert(document.getElementById("Background"));
        var svgDocument = evt.target.ownerDocument;
        var svgRoot = svgDocument.documentElement;

        // hide all frames
        var group;
        for (group = 1; group < 26; group++) {
          document.getElementById(FormatNumber(group)).setAttribute("display", "none");
        }

        // animate frames
        group = 1;
        document.getElementById(FormatNumber(group)).setAttribute("display", "");
        await sleep(100);
        for (group = 2; group < 26; group++) {
          document.getElementById(FormatNumber(group-1)).setAttribute("display", "none");
          document.getElementById(FormatNumber(group)).setAttribute("display", "");
          await sleep(100);
        }
      };
    ]]>
  </script>
  <g id="Background">
    <rect x="0" y="0" width="396.85" height="342.903" fill="#000000" fill-opacity="0"/>
  </g>
  <g id="Grid">
    <g>
      <path d="M69.578,297.836 L69.578,71.062 M134.002,297.836 L134.002,71.062 M198.427,297.836 L198.427,71.062 M262.851,297.836 L262.851,71.062 M327.276,297.836 L327.276,71.062" fill-opacity="0" stroke="#B8B8B8" stroke-width="0.249" stroke-linecap="round"/>
      <path d="M56.693,285.237 L340.161,285.237 M56.693,244.922 L340.161,244.922 M56.693,204.607 L340.161,204.607 M56.693,164.291 L340.161,164.291 M56.693,123.976 L340.161,123.976 M56.693,83.661 L340.161,83.661" fill-opacity="0" stroke="#B8B8B8" stroke-width="0.249" stroke-linecap="round"/>
      <path d="M69.578,297.836 L69.578,293.584 M134.002,297.836 L134.002,293.584 M198.427,297.836 L198.427,293.584 M262.851,297.836 L262.851,293.584 M327.276,297.836 L327.276,293.584 M69.578,71.062 L69.578,75.315 M134.002,71.062 L134.002,75.315 M198.427,71.062 L198.427,75.315 M262.851,71.062 L262.851,75.315 M327.276,71.062 L327.276,75.315" fill-opacity="0" stroke="#808080" stroke-width="0.199"/>
      <path d="M56.693,285.237 L60.946,285.237 M56.693,244.922 L60.946,244.922 M56.693,204.607 L60.946,204.607 M56.693,164.291 L60.946,164.291 M56.693,123.976 L60.946,123.976 M56.693,83.661 L60.946,83.661 M340.161,285.237 L335.908,285.237 M340.161,244.922 L335.908,244.922 M340.161,204.607 L335.908,204.607 M340.161,164.291 L335.908,164.291 M340.161,123.976 L335.908,123.976 M340.161,83.661 L335.908,83.661" fill-opacity="0" stroke="#808080" stroke-width="0.199"/>
      <path d="M56.693,297.836 L56.693,71.062 L340.161,71.062 L340.161,297.836 L56.693,297.836 z" fill-opacity="0" stroke="#000000" stroke-width="0.398"/>
      <path d="M69.778,305.485 C69.948,305.485 70.127,305.485 70.127,305.285 C70.127,305.086 69.948,305.086 69.778,305.086 L64.389,305.086 C64.219,305.086 64.04,305.086 64.04,305.285 C64.04,305.485 64.219,305.485 64.389,305.485 z" fill="#000000"/>
      <path d="M73.89,301.4 C73.89,301.161 73.89,301.141 73.661,301.141 C73.043,301.779 72.166,301.779 71.848,301.779 L71.848,302.087 C72.047,302.087 72.635,302.087 73.153,301.828 L73.153,306.989 C73.153,307.348 73.123,307.467 72.226,307.467 L71.907,307.467 L71.907,307.776 C72.256,307.746 73.123,307.746 73.521,307.746 C73.92,307.746 74.787,307.746 75.135,307.776 L75.135,307.467 L74.817,307.467 C73.92,307.467 73.89,307.358 73.89,306.989 z" fill="#000000"/>
      <path d="M130.327,305.485 C130.497,305.485 130.676,305.485 130.676,305.285 C130.676,305.086 130.497,305.086 130.327,305.086 L124.938,305.086 C124.768,305.086 124.589,305.086 124.589,305.285 C124.589,305.485 124.768,305.485 124.938,305.485 z" fill="#000000"/>
      <path d="M136.094,304.588 C136.094,303.791 136.044,302.994 135.695,302.257 C135.237,301.3 134.42,301.141 134.002,301.141 C133.404,301.141 132.677,301.4 132.268,302.326 C131.949,303.014 131.9,303.791 131.9,304.588 C131.9,305.335 131.939,306.232 132.348,306.989 C132.776,307.796 133.504,307.995 133.992,307.995 C134.53,307.995 135.287,307.786 135.725,306.84 C136.044,306.152 136.094,305.375 136.094,304.588 z M133.992,307.776 C133.603,307.776 133.015,307.527 132.836,306.571 C132.726,305.973 132.726,305.056 132.726,304.468 C132.726,303.831 132.726,303.173 132.806,302.635 C132.995,301.45 133.743,301.36 133.992,301.36 C134.32,301.36 134.978,301.539 135.167,302.526 C135.267,303.084 135.267,303.841 135.267,304.468 C135.267,305.216 135.267,305.893 135.157,306.531 C135.008,307.477 134.44,307.776 133.992,307.776 z" fill="#000000"/>
      <path d="M138.405,307.248 C138.405,306.959 138.166,306.72 137.877,306.72 C137.588,306.72 137.349,306.959 137.349,307.248 C137.349,307.537 137.588,307.776 137.877,307.776 C138.166,307.776 138.405,307.537 138.405,307.248 z" fill="#000000"/>
      <path d="M143.732,305.774 C143.732,304.588 142.915,303.592 141.839,303.592 C141.361,303.592 140.933,303.751 140.574,304.1 L140.574,302.157 C140.773,302.217 141.102,302.287 141.421,302.287 C142.646,302.287 143.344,301.38 143.344,301.25 C143.344,301.191 143.314,301.141 143.244,301.141 C143.234,301.141 143.214,301.141 143.164,301.171 C142.965,301.26 142.477,301.46 141.809,301.46 C141.411,301.46 140.953,301.39 140.484,301.181 C140.405,301.151 140.385,301.151 140.365,301.151 C140.265,301.151 140.265,301.231 140.265,301.39 L140.265,304.339 C140.265,304.518 140.265,304.598 140.405,304.598 C140.474,304.598 140.494,304.568 140.534,304.508 C140.644,304.349 141.012,303.811 141.819,303.811 C142.337,303.811 142.587,304.269 142.666,304.448 C142.826,304.817 142.846,305.206 142.846,305.704 C142.846,306.052 142.846,306.65 142.606,307.069 C142.367,307.457 141.999,307.716 141.54,307.716 C140.813,307.716 140.245,307.188 140.076,306.6 C140.106,306.61 140.136,306.62 140.245,306.62 C140.574,306.62 140.743,306.371 140.743,306.132 C140.743,305.893 140.574,305.644 140.245,305.644 C140.106,305.644 139.757,305.714 139.757,306.172 C139.757,307.029 140.445,307.995 141.56,307.995 C142.716,307.995 143.732,307.039 143.732,305.774 z" fill="#000000"/>
      <path d="M200.517,304.588 C200.517,303.791 200.467,302.994 200.118,302.257 C199.66,301.3 198.843,301.141 198.425,301.141 C197.827,301.141 197.1,301.4 196.691,302.326 C196.372,303.014 196.323,303.791 196.323,304.588 C196.323,305.335 196.362,306.232 196.771,306.989 C197.199,307.796 197.927,307.995 198.415,307.995 C198.953,307.995 199.71,307.786 200.148,306.84 C200.467,306.152 200.517,305.375 200.517,304.588 z M198.415,307.776 C198.026,307.776 197.438,307.527 197.259,306.571 C197.149,305.973 197.149,305.056 197.149,304.468 C197.149,303.831 197.149,303.173 197.229,302.635 C197.418,301.45 198.166,301.36 198.415,301.36 C198.743,301.36 199.401,301.539 199.59,302.526 C199.69,303.084 199.69,303.841 199.69,304.468 C199.69,305.216 199.69,305.893 199.58,306.531 C199.431,307.477 198.863,307.776 198.415,307.776 z" fill="#000000"/>
      <path d="M261.067,304.588 C261.067,303.791 261.017,302.994 260.668,302.257 C260.21,301.3 259.393,301.141 258.975,301.141 C258.377,301.141 257.65,301.4 257.241,302.326 C256.922,303.014 256.873,303.791 256.873,304.588 C256.873,305.335 256.912,306.232 257.321,306.989 C257.749,307.796 258.477,307.995 258.965,307.995 C259.503,307.995 260.26,307.786 260.698,306.84 C261.017,306.152 261.067,305.375 261.067,304.588 z M258.965,307.776 C258.576,307.776 257.988,307.527 257.809,306.571 C257.699,305.973 257.699,305.056 257.699,304.468 C257.699,303.831 257.699,303.173 257.779,302.635 C257.968,301.45 258.716,301.36 258.965,301.36 C259.293,301.36 259.951,301.539 260.14,302.526 C260.24,303.084 260.24,303.841 260.24,304.468 C260.24,305.216 260.24,305.893 260.13,306.531 C259.981,307.477 259.413,307.776 258.965,307.776 z" fill="#000000"/>
      <path d="M263.378,307.248 C263.378,306.959 263.139,306.72 262.85,306.72 C262.561,306.72 262.322,306.959 262.322,307.248 C262.322,307.537 262.561,307.776 262.85,307.776 C263.139,307.776 263.378,307.537 263.378,307.248 z" fill="#000000"/>
      <path d="M268.705,305.774 C268.705,304.588 267.888,303.592 266.812,303.592 C266.334,303.592 265.906,303.751 265.547,304.1 L265.547,302.157 C265.746,302.217 266.075,302.287 266.394,302.287 C267.619,302.287 268.317,301.38 268.317,301.25 C268.317,301.191 268.287,301.141 268.217,301.141 C268.207,301.141 268.187,301.141 268.137,301.171 C267.938,301.26 267.45,301.46 266.782,301.46 C266.384,301.46 265.926,301.39 265.457,301.181 C265.378,301.151 265.358,301.151 265.338,301.151 C265.238,301.151 265.238,301.231 265.238,301.39 L265.238,304.339 C265.238,304.518 265.238,304.598 265.378,304.598 C265.447,304.598 265.467,304.568 265.507,304.508 C265.617,304.349 265.985,303.811 266.792,303.811 C267.31,303.811 267.56,304.269 267.639,304.448 C267.799,304.817 267.819,305.206 267.819,305.704 C267.819,306.052 267.819,306.65 267.579,307.069 C267.34,307.457 266.972,307.716 266.513,307.716 C265.786,307.716 265.218,307.188 265.049,306.6 C265.079,306.61 265.109,306.62 265.218,306.62 C265.547,306.62 265.716,306.371 265.716,306.132 C265.716,305.893 265.547,305.644 265.218,305.644 C265.079,305.644 264.73,305.714 264.73,306.172 C264.73,307.029 265.418,307.995 266.533,307.995 C267.689,307.995 268.705,307.039 268.705,305.774 z" fill="#000000"/>
      <path d="M327.711,301.4 C327.711,301.161 327.711,301.141 327.482,301.141 C326.864,301.779 325.987,301.779 325.669,301.779 L325.669,302.087 C325.868,302.087 326.456,302.087 326.974,301.828 L326.974,306.989 C326.974,307.348 326.944,307.467 326.047,307.467 L325.728,307.467 L325.728,307.776 C326.077,307.746 326.944,307.746 327.342,307.746 C327.741,307.746 328.608,307.746 328.956,307.776 L328.956,307.467 L328.638,307.467 C327.741,307.467 327.711,307.358 327.711,306.989 z" fill="#000000"/>
      <path d="M52.775,285.26 C52.775,284.463 52.725,283.666 52.376,282.929 C51.918,281.972 51.101,281.813 50.683,281.813 C50.085,281.813 49.358,282.072 48.949,282.998 C48.63,283.686 48.581,284.463 48.581,285.26 C48.581,286.007 48.62,286.904 49.029,287.661 C49.457,288.468 50.185,288.667 50.673,288.667 C51.211,288.667 51.968,288.458 52.406,287.512 C52.725,286.824 52.775,286.047 52.775,285.26 z M50.673,288.448 C50.284,288.448 49.696,288.199 49.517,287.243 C49.407,286.645 49.407,285.728 49.407,285.14 C49.407,284.503 49.407,283.845 49.487,283.307 C49.676,282.122 50.424,282.032 50.673,282.032 C51.001,282.032 51.659,282.211 51.848,283.198 C51.948,283.756 51.948,284.513 51.948,285.14 C51.948,285.888 51.948,286.565 51.838,287.203 C51.689,288.149 51.121,288.448 50.673,288.448 z" fill="#000000"/>
      <path d="M45.026,244.945 C45.026,244.148 44.976,243.351 44.627,242.614 C44.169,241.657 43.352,241.498 42.934,241.498 C42.336,241.498 41.609,241.757 41.2,242.683 C40.881,243.371 40.832,244.148 40.832,244.945 C40.832,245.692 40.871,246.589 41.28,247.346 C41.708,248.153 42.436,248.352 42.924,248.352 C43.462,248.352 44.219,248.143 44.657,247.197 C44.976,246.509 45.026,245.732 45.026,244.945 z M42.924,248.133 C42.535,248.133 41.947,247.884 41.768,246.928 C41.658,246.33 41.658,245.413 41.658,244.825 C41.658,244.188 41.658,243.53 41.738,242.992 C41.927,241.807 42.675,241.717 42.924,241.717 C43.252,241.717 43.91,241.896 44.099,242.883 C44.199,243.441 44.199,244.198 44.199,244.825 C44.199,245.573 44.199,246.25 44.089,246.888 C43.94,247.834 43.372,248.133 42.924,248.133 z" fill="#000000"/>
      <path d="M47.337,247.605 C47.337,247.316 47.098,247.077 46.809,247.077 C46.52,247.077 46.281,247.316 46.281,247.605 C46.281,247.894 46.52,248.133 46.809,248.133 C47.098,248.133 47.337,247.894 47.337,247.605 z" fill="#000000"/>
      <path d="M49.457,247.366 L50.513,246.34 C52.067,244.965 52.665,244.427 52.665,243.431 C52.665,242.295 51.769,241.498 50.553,241.498 C49.427,241.498 48.69,242.414 48.69,243.301 C48.69,243.859 49.188,243.859 49.218,243.859 C49.388,243.859 49.736,243.739 49.736,243.331 C49.736,243.072 49.557,242.813 49.208,242.813 C49.128,242.813 49.109,242.813 49.079,242.823 C49.308,242.175 49.846,241.807 50.424,241.807 C51.33,241.807 51.759,242.614 51.759,243.431 C51.759,244.228 51.26,245.015 50.713,245.632 L48.8,247.764 C48.69,247.874 48.69,247.894 48.69,248.133 L52.386,248.133 L52.665,246.4 L52.416,246.4 C52.366,246.698 52.297,247.137 52.197,247.286 C52.127,247.366 51.47,247.366 51.251,247.366 z" fill="#000000"/>
      <path d="M45.026,204.63 C45.026,203.833 44.976,203.036 44.627,202.299 C44.169,201.342 43.352,201.183 42.934,201.183 C42.336,201.183 41.609,201.442 41.2,202.368 C40.881,203.056 40.832,203.833 40.832,204.63 C40.832,205.377 40.871,206.274 41.28,207.031 C41.708,207.838 42.436,208.037 42.924,208.037 C43.462,208.037 44.219,207.828 44.657,206.882 C44.976,206.194 45.026,205.417 45.026,204.63 z M42.924,207.818 C42.535,207.818 41.947,207.569 41.768,206.613 C41.658,206.015 41.658,205.098 41.658,204.51 C41.658,203.873 41.658,203.215 41.738,202.677 C41.927,201.492 42.675,201.402 42.924,201.402 C43.252,201.402 43.91,201.581 44.099,202.568 C44.199,203.126 44.199,203.883 44.199,204.51 C44.199,205.258 44.199,205.935 44.089,206.573 C43.94,207.519 43.372,207.818 42.924,207.818 z" fill="#000000"/>
      <path d="M47.337,207.29 C47.337,207.001 47.098,206.762 46.809,206.762 C46.52,206.762 46.281,207.001 46.281,207.29 C46.281,207.579 46.52,207.818 46.809,207.818 C47.098,207.818 47.337,207.579 47.337,207.29 z" fill="#000000"/>
      <path d="M51.121,206.174 L51.121,207.041 C51.121,207.4 51.101,207.509 50.364,207.509 L50.155,207.509 L50.155,207.818 C50.563,207.788 51.081,207.788 51.5,207.788 C51.918,207.788 52.446,207.788 52.854,207.818 L52.854,207.509 L52.645,207.509 C51.908,207.509 51.888,207.4 51.888,207.041 L51.888,206.174 L52.884,206.174 L52.884,205.865 L51.888,205.865 L51.888,201.332 C51.888,201.133 51.888,201.073 51.729,201.073 C51.639,201.073 51.609,201.073 51.529,201.193 L48.471,205.865 L48.471,206.174 z M51.181,205.865 L48.75,205.865 L51.181,202.149 z" fill="#000000"/>
      <path d="M45.026,164.315 C45.026,163.518 44.976,162.721 44.627,161.984 C44.169,161.027 43.352,160.868 42.934,160.868 C42.336,160.868 41.609,161.127 41.2,162.053 C40.881,162.741 40.832,163.518 40.832,164.315 C40.832,165.062 40.871,165.959 41.28,166.716 C41.708,167.523 42.436,167.722 42.924,167.722 C43.462,167.722 44.219,167.513 44.657,166.567 C44.976,165.879 45.026,165.102 45.026,164.315 z M42.924,167.503 C42.535,167.503 41.947,167.254 41.768,166.298 C41.658,165.7 41.658,164.783 41.658,164.195 C41.658,163.558 41.658,162.9 41.738,162.362 C41.927,161.177 42.675,161.087 42.924,161.087 C43.252,161.087 43.91,161.266 44.099,162.253 C44.199,162.811 44.199,163.568 44.199,164.195 C44.199,164.943 44.199,165.62 44.089,166.258 C43.94,167.204 43.372,167.503 42.924,167.503 z" fill="#000000"/>
      <path d="M47.337,166.975 C47.337,166.686 47.098,166.447 46.809,166.447 C46.52,166.447 46.281,166.686 46.281,166.975 C46.281,167.264 46.52,167.503 46.809,167.503 C47.098,167.503 47.337,167.264 47.337,166.975 z" fill="#000000"/>
      <path d="M49.507,164.235 L49.507,163.996 C49.507,161.476 50.742,161.117 51.251,161.117 C51.49,161.117 51.908,161.177 52.127,161.515 C51.978,161.515 51.579,161.515 51.579,161.964 C51.579,162.273 51.818,162.422 52.038,162.422 C52.197,162.422 52.496,162.332 52.496,161.944 C52.496,161.346 52.057,160.868 51.231,160.868 C49.955,160.868 48.61,162.153 48.61,164.355 C48.61,167.015 49.766,167.722 50.693,167.722 C51.798,167.722 52.745,166.786 52.745,165.471 C52.745,164.205 51.858,163.249 50.752,163.249 C50.075,163.249 49.706,163.757 49.507,164.235 z M50.693,167.443 C50.065,167.443 49.766,166.845 49.706,166.696 C49.527,166.228 49.527,165.431 49.527,165.251 C49.527,164.474 49.846,163.478 50.742,163.478 C50.902,163.478 51.36,163.478 51.669,164.096 C51.848,164.464 51.848,164.973 51.848,165.461 C51.848,165.939 51.848,166.437 51.679,166.796 C51.38,167.393 50.922,167.443 50.693,167.443 z" fill="#000000"/>
      <path d="M45.026,124 C45.026,123.203 44.976,122.406 44.627,121.669 C44.169,120.712 43.352,120.553 42.934,120.553 C42.336,120.553 41.609,120.812 41.2,121.738 C40.881,122.426 40.832,123.203 40.832,124 C40.832,124.747 40.871,125.644 41.28,126.401 C41.708,127.208 42.436,127.407 42.924,127.407 C43.462,127.407 44.219,127.198 44.657,126.252 C44.976,125.564 45.026,124.787 45.026,124 z M42.924,127.188 C42.535,127.188 41.947,126.939 41.768,125.983 C41.658,125.385 41.658,124.468 41.658,123.88 C41.658,123.243 41.658,122.585 41.738,122.047 C41.927,120.862 42.675,120.772 42.924,120.772 C43.252,120.772 43.91,120.951 44.099,121.938 C44.199,122.496 44.199,123.253 44.199,123.88 C44.199,124.628 44.199,125.305 44.089,125.943 C43.94,126.889 43.372,127.188 42.924,127.188 z" fill="#000000"/>
      <path d="M47.337,126.66 C47.337,126.371 47.098,126.132 46.809,126.132 C46.52,126.132 46.281,126.371 46.281,126.66 C46.281,126.949 46.52,127.188 46.809,127.188 C47.098,127.188 47.337,126.949 47.337,126.66 z" fill="#000000"/>
      <path d="M49.816,122.635 C49.358,122.336 49.318,121.997 49.318,121.828 C49.318,121.22 49.965,120.802 50.673,120.802 C51.4,120.802 52.038,121.32 52.038,122.037 C52.038,122.605 51.649,123.083 51.051,123.432 z M51.27,123.582 C51.988,123.213 52.476,122.695 52.476,122.037 C52.476,121.121 51.589,120.553 50.683,120.553 C49.686,120.553 48.879,121.29 48.879,122.217 C48.879,122.396 48.899,122.844 49.318,123.313 C49.427,123.432 49.796,123.681 50.045,123.851 C49.467,124.139 48.61,124.697 48.61,125.684 C48.61,126.74 49.627,127.407 50.673,127.407 C51.798,127.407 52.745,126.58 52.745,125.514 C52.745,125.156 52.635,124.707 52.257,124.289 C52.067,124.08 51.908,123.98 51.27,123.582 z M50.274,124 L51.5,124.777 C51.779,124.966 52.247,125.265 52.247,125.873 C52.247,126.61 51.5,127.128 50.683,127.128 C49.826,127.128 49.109,126.511 49.109,125.684 C49.109,125.106 49.427,124.468 50.274,124 z" fill="#000000"/>
      <path d="M51.121,80.498 C51.121,80.259 51.121,80.239 50.892,80.239 C50.274,80.877 49.397,80.877 49.079,80.877 L49.079,81.185 C49.278,81.185 49.866,81.185 50.384,80.926 L50.384,86.087 C50.384,86.446 50.354,86.565 49.457,86.565 L49.138,86.565 L49.138,86.874 C49.487,86.844 50.354,86.844 50.752,86.844 C51.151,86.844 52.018,86.844 52.366,86.874 L52.366,86.565 L52.048,86.565 C51.151,86.565 51.121,86.456 51.121,86.087 z" fill="#000000"/>
    </g>
    <path d="M69.578,83.661 C69.578,83.661 70.513,83.683 70.873,83.711 C71.232,83.739 71.808,83.806 72.168,83.862 C72.527,83.917 73.103,84.029 73.463,84.113 C73.822,84.196 74.398,84.352 74.758,84.463 C75.117,84.575 75.693,84.775 76.053,84.914 C76.412,85.053 76.988,85.298 77.348,85.464 C77.707,85.63 78.283,85.919 78.643,86.112 C79.002,86.306 79.578,86.638 79.938,86.859 C80.297,87.08 80.873,87.455 81.233,87.703 C81.592,87.95 82.168,88.369 82.527,88.643 C82.887,88.917 83.463,89.378 83.822,89.679 C84.182,89.979 84.758,90.482 85.117,90.809 C85.477,91.135 86.053,91.68 86.412,92.032 C86.772,92.385 87.348,92.97 87.707,93.348 C88.067,93.726 88.643,94.352 89.002,94.755 C89.362,95.157 89.938,95.823 90.297,96.25 C90.657,96.678 91.233,97.383 91.592,97.834 C91.952,98.286 92.528,99.029 92.887,99.504 C93.247,99.98 93.823,100.761 94.182,101.259 C94.542,101.758 95.118,102.576 95.477,103.097 C95.837,103.618 96.413,104.472 96.772,105.016 C97.131,105.559 97.708,106.449 98.067,107.014 C98.426,107.579 99.003,108.503 99.362,109.089 C99.721,109.675 100.298,110.633 100.657,111.239 C101.016,111.846 101.593,112.836 101.952,113.463 C102.311,114.09 102.888,115.111 103.247,115.757 C103.606,116.403 104.183,117.455 104.542,118.119 C104.901,118.784 105.478,119.865 105.837,120.548 C106.196,121.231 106.772,122.34 107.132,123.04 C107.491,123.741 108.067,124.877 108.427,125.594 C108.786,126.311 109.362,127.474 109.722,128.206 C110.081,128.939 110.657,130.127 111.017,130.875 C111.376,131.622 111.952,132.834 112.312,133.596 C112.671,134.359 113.247,135.593 113.607,136.369 C113.966,137.145 114.542,138.4 114.902,139.189 C115.261,139.978 115.837,141.253 116.197,142.054 C116.556,142.855 117.132,144.15 117.492,144.962 C117.851,145.774 118.427,147.086 118.786,147.909 C119.146,148.732 119.722,150.06 120.081,150.893 C120.441,151.725 121.017,153.068 121.376,153.91 C121.736,154.751 122.312,156.108 122.671,156.957 C123.031,157.807 123.607,159.175 123.966,160.032 C124.326,160.888 124.902,162.268 125.261,163.131 C125.621,163.994 126.197,165.383 126.556,166.251 C126.916,167.12 127.492,168.517 127.851,169.39 C128.211,170.263 128.787,171.667 129.146,172.544 C129.506,173.42 130.082,174.829 130.441,175.709 C130.801,176.589 131.377,178.001 131.736,178.883 C132.096,179.764 132.672,181.18 133.031,182.063 C133.39,182.945 133.967,184.362 134.326,185.245 C134.685,186.128 135.262,187.544 135.621,188.426 C135.98,189.308 136.557,190.722 136.916,191.603 C137.275,192.484 137.852,193.895 138.211,194.773 C138.57,195.652 139.147,197.058 139.506,197.933 C139.865,198.808 140.442,200.209 140.801,201.08 C141.16,201.95 141.737,203.344 142.096,204.209 C142.455,205.075 143.031,206.46 143.391,207.32 C143.75,208.179 144.326,209.554 144.686,210.407 C145.045,211.26 145.621,212.623 145.981,213.468 C146.34,214.314 146.916,215.664 147.276,216.501 C147.635,217.338 148.211,218.674 148.571,219.502 C148.93,220.329 149.506,221.65 149.866,222.467 C150.225,223.285 150.801,224.588 151.161,225.395 C151.52,226.202 152.096,227.487 152.456,228.282 C152.815,229.077 153.391,230.343 153.751,231.125 C154.11,231.908 154.686,233.153 155.046,233.922 C155.405,234.691 155.981,235.914 156.34,236.669 C156.7,237.424 157.276,238.624 157.635,239.365 C157.995,240.105 158.571,241.28 158.93,242.005 C159.29,242.73 159.866,243.88 160.225,244.588 C160.585,245.297 161.161,246.42 161.52,247.112 C161.88,247.803 162.456,248.899 162.815,249.573 C163.175,250.246 163.751,251.313 164.11,251.968 C164.47,252.624 165.046,253.661 165.405,254.297 C165.765,254.934 166.341,255.939 166.7,256.556 C167.059,257.173 167.636,258.147 167.995,258.743 C168.354,259.34 168.931,260.28 169.29,260.856 C169.649,261.432 170.226,262.339 170.585,262.893 C170.944,263.447 171.521,264.319 171.88,264.852 C172.239,265.384 172.816,266.22 173.175,266.73 C173.534,267.24 174.111,268.04 174.47,268.527 C174.829,269.014 175.406,269.776 175.765,270.24 C176.124,270.703 176.701,271.427 177.06,271.867 C177.419,272.306 177.995,272.992 178.355,273.407 C178.714,273.822 179.29,274.468 179.65,274.858 C180.009,275.248 180.585,275.854 180.945,276.219 C181.304,276.584 181.88,277.15 182.24,277.489 C182.599,277.829 183.175,278.353 183.535,278.666 C183.894,278.98 184.47,279.462 184.83,279.749 C185.189,280.037 185.765,280.476 186.125,280.737 C186.484,280.998 187.06,281.395 187.42,281.63 C187.779,281.864 188.355,282.218 188.715,282.425 C189.074,282.632 189.65,282.942 190.009,283.122 C190.369,283.302 190.945,283.569 191.304,283.722 C191.664,283.874 192.24,284.097 192.6,284.222 C192.959,284.347 193.535,284.525 193.894,284.623 C194.254,284.72 194.83,284.854 195.189,284.924 C195.549,284.993 196.125,285.083 196.484,285.124 C196.844,285.166 197.42,285.211 197.779,285.225 C198.139,285.239 198.715,285.239 199.074,285.225 C199.434,285.211 200.01,285.166 200.369,285.124 C200.729,285.083 201.305,284.993 201.664,284.924 C202.024,284.854 202.6,284.72 202.959,284.623 C203.318,284.525 203.895,284.347 204.254,284.222 C204.613,284.097 205.19,283.874 205.549,283.722 C205.908,283.569 206.485,283.302 206.844,283.122 C207.203,282.942 207.78,282.632 208.139,282.425 C208.498,282.218 209.075,281.864 209.434,281.63 C209.793,281.395 210.37,280.998 210.729,280.737 C211.088,280.476 211.665,280.037 212.024,279.749 C212.383,279.462 212.96,278.98 213.319,278.666 C213.678,278.353 214.255,277.829 214.614,277.489 C214.973,277.15 215.549,276.584 215.909,276.219 C216.268,275.854 216.844,275.248 217.204,274.858 C217.563,274.468 218.139,273.822 218.499,273.407 C218.858,272.992 219.434,272.306 219.794,271.867 C220.153,271.427 220.729,270.703 221.089,270.24 C221.448,269.776 222.024,269.014 222.384,268.527 C222.743,268.04 223.319,267.24 223.679,266.73 C224.038,266.22 224.614,265.384 224.974,264.852 C225.333,264.319 225.909,263.447 226.268,262.893 C226.628,262.339 227.204,261.432 227.563,260.856 C227.923,260.28 228.499,259.34 228.858,258.743 C229.218,258.147 229.794,257.173 230.153,256.556 C230.513,255.939 231.089,254.934 231.448,254.297 C231.808,253.661 232.384,252.624 232.743,251.968 C233.103,251.313 233.679,250.246 234.038,249.573 C234.398,248.899 234.974,247.803 235.333,247.112 C235.693,246.42 236.269,245.297 236.628,244.588 C236.988,243.88 237.564,242.73 237.923,242.005 C238.283,241.28 238.859,240.105 239.218,239.365 C239.577,238.624 240.154,237.424 240.513,236.669 C240.872,235.914 241.449,234.691 241.808,233.922 C242.167,233.153 242.744,231.908 243.103,231.125 C243.462,230.343 244.039,229.077 244.398,228.282 C244.757,227.487 245.334,226.202 245.693,225.395 C246.052,224.588 246.629,223.285 246.988,222.467 C247.347,221.65 247.924,220.329 248.283,219.502 C248.642,218.674 249.218,217.338 249.578,216.501 C249.937,215.664 250.513,214.314 250.873,213.468 C251.232,212.623 251.809,211.26 252.168,210.407 C252.527,209.554 253.103,208.179 253.463,207.32 C253.822,206.46 254.398,205.075 254.758,204.209 C255.117,203.344 255.693,201.95 256.053,201.08 C256.412,200.209 256.988,198.808 257.348,197.933 C257.707,197.058 258.283,195.652 258.643,194.773 C259.002,193.895 259.578,192.484 259.938,191.603 C260.297,190.722 260.873,189.308 261.233,188.426 C261.592,187.544 262.168,186.128 262.527,185.245 C262.887,184.362 263.463,182.945 263.823,182.063 C264.182,181.18 264.758,179.764 265.117,178.883 C265.477,178.001 266.053,176.589 266.412,175.709 C266.772,174.829 267.348,173.42 267.707,172.544 C268.067,171.667 268.643,170.263 269.002,169.39 C269.362,168.517 269.938,167.12 270.297,166.251 C270.657,165.383 271.233,163.994 271.592,163.131 C271.952,162.268 272.528,160.888 272.887,160.032 C273.247,159.175 273.823,157.807 274.182,156.957 C274.542,156.108 275.118,154.751 275.477,153.91 C275.836,153.068 276.413,151.725 276.772,150.893 C277.132,150.06 277.708,148.732 278.067,147.909 C278.426,147.086 279.003,145.774 279.362,144.962 C279.721,144.15 280.298,142.855 280.657,142.054 C281.016,141.253 281.593,139.978 281.952,139.189 C282.311,138.4 282.888,137.145 283.247,136.369 C283.606,135.593 284.183,134.359 284.542,133.596 C284.901,132.834 285.478,131.622 285.837,130.875 C286.196,130.127 286.772,128.939 287.132,128.206 C287.491,127.474 288.068,126.311 288.427,125.594 C288.786,124.877 289.362,123.741 289.722,123.04 C290.081,122.34 290.657,121.231 291.017,120.548 C291.376,119.865 291.952,118.784 292.312,118.119 C292.671,117.455 293.247,116.403 293.607,115.757 C293.966,115.111 294.542,114.09 294.902,113.463 C295.261,112.836 295.837,111.846 296.197,111.239 C296.556,110.633 297.132,109.675 297.492,109.089 C297.851,108.503 298.427,107.579 298.786,107.014 C299.146,106.449 299.722,105.559 300.081,105.016 C300.441,104.472 301.017,103.618 301.376,103.097 C301.736,102.576 302.312,101.758 302.671,101.259 C303.031,100.761 303.607,99.98 303.966,99.504 C304.326,99.029 304.902,98.286 305.261,97.834 C305.621,97.383 306.197,96.678 306.556,96.25 C306.916,95.823 307.492,95.157 307.851,94.755 C308.211,94.352 308.787,93.726 309.146,93.348 C309.506,92.97 310.082,92.385 310.441,92.032 C310.801,91.68 311.377,91.135 311.736,90.809 C312.095,90.482 312.672,89.979 313.031,89.679 C313.391,89.378 313.967,88.917 314.326,88.643 C314.685,88.369 315.262,87.95 315.621,87.703 C315.98,87.455 316.557,87.08 316.916,86.859 C317.275,86.638 317.852,86.306 318.211,86.112 C318.57,85.919 319.147,85.63 319.506,85.464 C319.865,85.298 320.442,85.053 320.801,84.914 C321.16,84.775 321.736,84.575 322.096,84.463 C322.455,84.352 323.031,84.196 323.391,84.113 C323.75,84.029 324.327,83.917 324.686,83.862 C325.045,83.806 325.621,83.739 325.981,83.711 C326.34,83.683 327.276,83.661 327.276,83.661" fill-opacity="0" stroke="#343534" stroke-width="0.797"/>
    <g>
      <path d="M187.448,317.938 C187.448,317.28 187.269,315.895 186.252,315.895 C184.868,315.895 183.333,318.705 183.333,320.986 C183.333,321.923 183.622,323.029 184.529,323.029 C185.934,323.029 187.448,320.169 187.448,317.938 z M184.389,319.303 C184.559,318.665 184.758,317.868 185.157,317.161 C185.426,316.672 185.794,316.115 186.243,316.115 C186.731,316.115 186.79,316.752 186.79,317.32 C186.79,317.808 186.711,318.316 186.472,319.303 z M186.382,319.621 C186.272,320.08 186.063,320.926 185.685,321.644 C185.336,322.321 184.957,322.809 184.529,322.809 C184.2,322.809 183.991,322.521 183.991,321.594 C183.991,321.176 184.051,320.598 184.31,319.621 z" fill="#000000"/>
      <path d="M192.244,315.826 C192.294,315.696 192.294,315.656 192.294,315.646 C192.294,315.537 192.204,315.447 192.095,315.447 C192.025,315.447 191.955,315.477 191.925,315.537 L188.468,325.031 C188.418,325.161 188.418,325.2 188.418,325.21 C188.418,325.32 188.508,325.41 188.618,325.41 C188.747,325.41 188.777,325.34 188.837,325.171 z" fill="#000000"/>
      <path d="M197.385,317.938 C197.385,317.28 197.205,315.895 196.189,315.895 C194.804,315.895 193.27,318.705 193.27,320.986 C193.27,321.923 193.559,323.029 194.466,323.029 C195.87,323.029 197.385,320.169 197.385,317.938 z M194.326,319.303 C194.496,318.665 194.695,317.868 195.093,317.161 C195.362,316.672 195.731,316.115 196.179,316.115 C196.667,316.115 196.727,316.752 196.727,317.32 C196.727,317.808 196.647,318.316 196.408,319.303 z M196.319,319.621 C196.209,320.08 196,320.926 195.621,321.644 C195.273,322.321 194.894,322.809 194.466,322.809 C194.137,322.809 193.928,322.521 193.928,321.594 C193.928,321.176 193.987,320.598 194.246,319.621 z" fill="#000000"/>
      <path d="M200.554,323.848 C200.519,323.988 200.456,324.225 200.456,324.26 C200.456,324.413 200.582,324.483 200.693,324.483 C200.819,324.483 200.93,324.392 200.965,324.329 C201,324.267 201.056,324.043 201.091,323.897 C201.125,323.764 201.202,323.444 201.244,323.269 C201.286,323.116 201.328,322.962 201.363,322.802 C201.439,322.502 201.439,322.488 201.579,322.272 C201.802,321.93 202.151,321.533 202.695,321.533 C203.085,321.533 203.106,321.854 203.106,322.021 C203.106,322.439 202.806,323.214 202.695,323.506 C202.618,323.702 202.59,323.764 202.59,323.883 C202.59,324.253 202.897,324.483 203.252,324.483 C203.95,324.483 204.257,323.52 204.257,323.416 C204.257,323.325 204.166,323.325 204.145,323.325 C204.048,323.325 204.041,323.367 204.013,323.444 C203.852,324.002 203.552,324.287 203.273,324.287 C203.127,324.287 203.099,324.19 203.099,324.043 C203.099,323.883 203.134,323.792 203.259,323.479 C203.343,323.262 203.629,322.523 203.629,322.133 C203.629,322.021 203.629,321.728 203.371,321.526 C203.252,321.435 203.05,321.338 202.722,321.338 C202.095,321.338 201.711,321.749 201.488,322.042 C201.432,321.449 200.937,321.338 200.582,321.338 C200.003,321.338 199.612,321.693 199.403,321.972 C199.354,321.491 198.943,321.338 198.657,321.338 C198.357,321.338 198.196,321.554 198.106,321.714 C197.952,321.972 197.855,322.37 197.855,322.405 C197.855,322.495 197.952,322.495 197.973,322.495 C198.071,322.495 198.078,322.474 198.127,322.286 C198.231,321.875 198.364,321.533 198.636,321.533 C198.817,321.533 198.866,321.686 198.866,321.875 C198.866,322.007 198.803,322.265 198.754,322.453 C198.706,322.642 198.636,322.928 198.601,323.081 L198.378,323.974 C198.35,324.064 198.308,324.239 198.308,324.26 C198.308,324.413 198.434,324.483 198.545,324.483 C198.671,324.483 198.782,324.392 198.817,324.329 C198.852,324.267 198.908,324.043 198.943,323.897 C198.978,323.764 199.054,323.444 199.096,323.269 C199.138,323.116 199.18,322.962 199.215,322.802 C199.291,322.516 199.305,322.46 199.508,322.174 C199.703,321.895 200.031,321.533 200.554,321.533 C200.958,321.533 200.965,321.888 200.965,322.021 C200.965,322.195 200.944,322.286 200.847,322.677 z" fill="#000000"/>
      <path d="M207.539,321.749 C207.393,321.519 207.156,321.338 206.821,321.338 C205.928,321.338 205.022,322.321 205.022,323.325 C205.022,324.002 205.475,324.483 206.075,324.483 C206.451,324.483 206.786,324.267 207.065,323.995 C207.198,324.413 207.602,324.483 207.783,324.483 C208.034,324.483 208.209,324.329 208.334,324.113 C208.488,323.841 208.578,323.444 208.578,323.416 C208.578,323.325 208.488,323.325 208.467,323.325 C208.369,323.325 208.362,323.353 208.313,323.541 C208.23,323.876 208.097,324.287 207.804,324.287 C207.623,324.287 207.574,324.134 207.574,323.946 C207.574,323.827 207.63,323.576 207.679,323.395 C207.728,323.207 207.797,322.921 207.832,322.767 L207.972,322.237 C208.014,322.056 208.097,321.728 208.097,321.693 C208.097,321.54 207.972,321.47 207.86,321.47 C207.742,321.47 207.581,321.554 207.539,321.749 z M207.093,323.541 C207.044,323.737 206.891,323.876 206.737,324.009 C206.675,324.064 206.396,324.287 206.096,324.287 C205.838,324.287 205.587,324.106 205.587,323.611 C205.587,323.241 205.789,322.474 205.949,322.195 C206.27,321.637 206.626,321.533 206.821,321.533 C207.309,321.533 207.442,322.063 207.442,322.14 C207.442,322.167 207.428,322.216 207.421,322.237 z" fill="#000000"/>
      <path d="M210.654,323.674 C210.585,323.911 210.355,324.287 209.999,324.287 C209.978,324.287 209.769,324.287 209.622,324.19 C209.908,324.099 209.929,323.848 209.929,323.806 C209.929,323.653 209.811,323.548 209.65,323.548 C209.455,323.548 209.253,323.716 209.253,323.974 C209.253,324.322 209.643,324.483 209.985,324.483 C210.306,324.483 210.592,324.28 210.766,323.988 C210.933,324.357 211.317,324.483 211.596,324.483 C212.398,324.483 212.823,323.611 212.823,323.416 C212.823,323.325 212.733,323.325 212.712,323.325 C212.614,323.325 212.607,323.36 212.579,323.444 C212.433,323.925 212.014,324.287 211.624,324.287 C211.345,324.287 211.198,324.099 211.198,323.834 C211.198,323.653 211.366,323.018 211.561,322.244 C211.701,321.707 212.014,321.533 212.245,321.533 C212.258,321.533 212.475,321.533 212.621,321.63 C212.398,321.693 212.314,321.888 212.314,322.014 C212.314,322.167 212.433,322.272 212.593,322.272 C212.754,322.272 212.984,322.14 212.984,321.847 C212.984,321.456 212.537,321.338 212.258,321.338 C211.91,321.338 211.631,321.568 211.477,321.833 C211.352,321.547 211.031,321.338 210.641,321.338 C209.859,321.338 209.413,322.195 209.413,322.405 C209.413,322.495 209.511,322.495 209.532,322.495 C209.622,322.495 209.629,322.467 209.664,322.377 C209.839,321.833 210.278,321.533 210.62,321.533 C210.85,321.533 211.038,321.658 211.038,321.993 C211.038,322.133 210.954,322.481 210.892,322.718 z" fill="#000000"/>
      <path d="M27.496,198.467 C28.572,200.459 29.857,200.569 30.096,200.569 C30.853,200.569 31.331,199.832 31.331,198.885 C31.331,197.222 29.757,195.887 29.548,195.887 C29.488,195.887 29.478,195.936 29.478,195.986 C29.478,196.106 29.608,196.484 29.916,196.714 C30.205,196.923 30.783,197.341 30.783,198.228 C30.783,198.935 30.415,199.722 29.667,199.722 C29.179,199.722 27.705,199.164 27.645,197.59 C27.625,197.122 27.276,196.773 27.167,196.773 C27.107,196.773 27.097,196.823 27.097,196.873 C27.037,198.278 26.35,198.557 25.951,198.557 C25.722,198.557 24.636,198.407 24.636,197.012 C24.636,196.823 24.666,196.066 25.184,196.066 C25.344,196.066 25.483,196.146 25.543,196.186 C25.573,196.205 25.623,196.235 25.652,196.235 C25.722,196.235 25.722,196.166 25.722,196.136 C25.722,195.837 25.334,195.219 24.766,195.219 C24.178,195.219 24.088,195.907 24.088,196.355 C24.088,197.71 25.164,199.403 26.38,199.403 C26.968,199.403 27.326,198.955 27.496,198.467 z" fill="#000000"/>
      <path d="M24.019,190.325 C23.889,190.276 23.849,190.276 23.839,190.276 C23.73,190.276 23.64,190.365 23.64,190.475 C23.64,190.545 23.67,190.614 23.73,190.644 L33.224,194.101 C33.354,194.151 33.393,194.151 33.403,194.151 C33.513,194.151 33.603,194.061 33.603,193.952 C33.603,193.822 33.533,193.792 33.364,193.733 z" fill="#000000"/>
      <path d="M27.496,187.336 C28.572,189.328 29.857,189.438 30.096,189.438 C30.853,189.438 31.331,188.701 31.331,187.754 C31.331,186.091 29.757,184.756 29.548,184.756 C29.488,184.756 29.478,184.805 29.478,184.855 C29.478,184.975 29.608,185.353 29.916,185.583 C30.205,185.792 30.783,186.21 30.783,187.097 C30.783,187.804 30.415,188.591 29.667,188.591 C29.179,188.591 27.705,188.033 27.645,186.459 C27.625,185.991 27.276,185.642 27.167,185.642 C27.107,185.642 27.097,185.692 27.097,185.742 C27.037,187.147 26.35,187.426 25.951,187.426 C25.722,187.426 24.636,187.276 24.636,185.881 C24.636,185.692 24.666,184.935 25.184,184.935 C25.344,184.935 25.483,185.015 25.543,185.055 C25.573,185.074 25.623,185.104 25.652,185.104 C25.722,185.104 25.722,185.035 25.722,185.005 C25.722,184.706 25.334,184.088 24.766,184.088 C24.178,184.088 24.088,184.776 24.088,185.224 C24.088,186.579 25.164,188.272 26.38,188.272 C26.968,188.272 27.326,187.824 27.496,187.336 z" fill="#000000"/>
      <path d="M32.042,181.432 C32.182,181.467 32.419,181.53 32.454,181.53 C32.607,181.53 32.677,181.404 32.677,181.293 C32.677,181.167 32.586,181.056 32.523,181.021 C32.461,180.986 32.237,180.93 32.091,180.895 C31.958,180.861 31.638,180.784 31.463,180.742 C31.31,180.7 31.156,180.658 30.996,180.623 C30.696,180.547 30.682,180.547 30.466,180.407 C30.124,180.184 29.727,179.835 29.727,179.291 C29.727,178.901 30.048,178.88 30.215,178.88 C30.633,178.88 31.408,179.18 31.7,179.291 C31.896,179.368 31.958,179.396 32.077,179.396 C32.447,179.396 32.677,179.089 32.677,178.734 C32.677,178.036 31.714,177.729 31.61,177.729 C31.519,177.729 31.519,177.82 31.519,177.841 C31.519,177.938 31.561,177.945 31.638,177.973 C32.196,178.134 32.481,178.434 32.481,178.713 C32.481,178.859 32.384,178.887 32.237,178.887 C32.077,178.887 31.986,178.852 31.673,178.727 C31.456,178.643 30.717,178.357 30.327,178.357 C30.215,178.357 29.922,178.357 29.72,178.615 C29.629,178.734 29.532,178.936 29.532,179.264 C29.532,179.891 29.943,180.275 30.236,180.498 C29.643,180.554 29.532,181.049 29.532,181.404 C29.532,181.983 29.887,182.374 30.166,182.583 C29.685,182.632 29.532,183.043 29.532,183.329 C29.532,183.629 29.748,183.79 29.908,183.88 C30.166,184.034 30.564,184.131 30.599,184.131 C30.689,184.131 30.689,184.034 30.689,184.013 C30.689,183.915 30.668,183.908 30.48,183.859 C30.069,183.755 29.727,183.622 29.727,183.35 C29.727,183.169 29.88,183.12 30.069,183.12 C30.201,183.12 30.459,183.183 30.647,183.232 C30.836,183.28 31.122,183.35 31.275,183.385 L32.168,183.608 C32.258,183.636 32.433,183.678 32.454,183.678 C32.607,183.678 32.677,183.552 32.677,183.441 C32.677,183.315 32.586,183.204 32.523,183.169 C32.461,183.134 32.237,183.078 32.091,183.043 C31.958,183.008 31.638,182.932 31.463,182.89 C31.31,182.848 31.156,182.806 30.996,182.771 C30.71,182.695 30.654,182.681 30.368,182.478 C30.089,182.283 29.727,181.955 29.727,181.432 C29.727,181.028 30.082,181.021 30.215,181.021 C30.389,181.021 30.48,181.042 30.871,181.139 z" fill="#000000"/>
      <path d="M29.943,174.447 C29.713,174.593 29.532,174.83 29.532,175.165 C29.532,176.058 30.515,176.964 31.519,176.964 C32.196,176.964 32.677,176.511 32.677,175.911 C32.677,175.535 32.461,175.2 32.189,174.921 C32.607,174.788 32.677,174.384 32.677,174.203 C32.677,173.952 32.523,173.777 32.307,173.652 C32.035,173.498 31.638,173.408 31.61,173.408 C31.519,173.408 31.519,173.498 31.519,173.519 C31.519,173.617 31.547,173.624 31.735,173.673 C32.07,173.756 32.481,173.889 32.481,174.182 C32.481,174.363 32.328,174.412 32.14,174.412 C32.021,174.412 31.77,174.356 31.589,174.307 C31.401,174.258 31.115,174.189 30.961,174.154 L30.431,174.014 C30.25,173.973 29.922,173.889 29.887,173.889 C29.734,173.889 29.664,174.014 29.664,174.126 C29.664,174.244 29.748,174.405 29.943,174.447 z M31.735,174.893 C31.931,174.942 32.07,175.095 32.203,175.249 C32.258,175.311 32.481,175.59 32.481,175.89 C32.481,176.148 32.3,176.399 31.805,176.399 C31.435,176.399 30.668,176.197 30.389,176.037 C29.831,175.716 29.727,175.36 29.727,175.165 C29.727,174.677 30.257,174.544 30.334,174.544 C30.361,174.544 30.41,174.558 30.431,174.565 z" fill="#000000"/>
      <path d="M31.868,171.332 C32.105,171.401 32.481,171.631 32.481,171.987 C32.481,172.008 32.481,172.217 32.384,172.364 C32.293,172.078 32.042,172.057 32,172.057 C31.847,172.057 31.742,172.175 31.742,172.336 C31.742,172.531 31.91,172.733 32.168,172.733 C32.516,172.733 32.677,172.343 32.677,172.001 C32.677,171.68 32.474,171.394 32.182,171.22 C32.551,171.053 32.677,170.669 32.677,170.39 C32.677,169.588 31.805,169.163 31.61,169.163 C31.519,169.163 31.519,169.253 31.519,169.274 C31.519,169.372 31.554,169.379 31.638,169.407 C32.119,169.553 32.481,169.972 32.481,170.362 C32.481,170.641 32.293,170.788 32.028,170.788 C31.847,170.788 31.212,170.62 30.438,170.425 C29.901,170.285 29.727,169.972 29.727,169.741 C29.727,169.728 29.727,169.511 29.824,169.365 C29.887,169.588 30.082,169.672 30.208,169.672 C30.361,169.672 30.466,169.553 30.466,169.393 C30.466,169.232 30.334,169.002 30.041,169.002 C29.65,169.002 29.532,169.449 29.532,169.728 C29.532,170.076 29.762,170.355 30.027,170.509 C29.741,170.634 29.532,170.955 29.532,171.345 C29.532,172.127 30.389,172.573 30.599,172.573 C30.689,172.573 30.689,172.475 30.689,172.454 C30.689,172.364 30.661,172.357 30.571,172.322 C30.027,172.147 29.727,171.708 29.727,171.366 C29.727,171.136 29.852,170.948 30.187,170.948 C30.327,170.948 30.675,171.032 30.912,171.094 z" fill="#000000"/>
      <path d="M159.561,48.184 L237.293,48.184 L237.293,30.826 L159.561,30.826 z" fill-opacity="0" stroke="#000000" stroke-width="0.398"/>
      <path d="M162.947,39.508 C162.947,39.508 169.091,39.508 171.451,39.508 C173.811,39.508 179.955,39.508 179.955,39.508" fill-opacity="0" stroke="#343534" stroke-width="0.797"/>
      <path d="M189.506,38.57 C188.215,39.189 187.587,40.247 187.587,40.91 C187.587,41.601 188.277,42.022 189.147,42.022 C190.671,42.022 191.909,40.597 191.909,40.417 C191.909,40.372 191.882,40.346 191.828,40.346 C191.747,40.346 191.371,40.444 191.138,40.758 C190.958,41.009 190.582,41.52 189.757,41.52 C189.102,41.52 188.367,41.206 188.367,40.516 C188.367,40.077 188.833,38.767 190.313,38.705 C190.761,38.687 191.075,38.346 191.075,38.265 C191.075,38.212 191.012,38.203 190.949,38.203 C189.811,38.149 189.416,37.647 189.416,37.171 C189.416,36.965 189.533,36.006 190.833,36.006 C191.075,36.006 191.712,36.042 191.712,36.508 C191.712,36.616 191.676,36.714 191.613,36.804 C191.568,36.885 191.568,36.902 191.568,36.92 C191.568,36.938 191.577,36.983 191.649,36.983 C191.873,36.983 192.492,36.66 192.492,36.113 C192.492,35.575 191.819,35.504 191.443,35.504 C190.187,35.504 188.636,36.49 188.636,37.566 C188.636,38.113 189.075,38.427 189.506,38.57 z" fill="#000000"/>
      <path d="M192.771,43.544 C192.729,43.7 192.723,43.742 192.466,43.742 C192.388,43.742 192.352,43.742 192.328,43.777 C192.317,43.801 192.293,43.879 192.293,43.897 C192.299,43.915 192.305,43.981 192.388,43.981 C192.556,43.981 192.753,43.957 192.926,43.957 C193.034,43.957 193.147,43.963 193.255,43.963 C193.357,43.963 193.476,43.981 193.578,43.981 C193.614,43.981 193.656,43.981 193.679,43.939 C193.691,43.921 193.715,43.849 193.715,43.825 C193.697,43.742 193.638,43.742 193.536,43.742 C193.393,43.742 193.237,43.742 193.237,43.67 C193.237,43.64 193.279,43.485 193.303,43.395 L193.518,42.522 C193.661,42.737 193.883,42.881 194.176,42.881 C194.965,42.881 195.772,42.056 195.772,41.201 C195.772,40.579 195.335,40.185 194.809,40.185 C194.325,40.185 193.948,40.573 193.919,40.609 C193.811,40.257 193.44,40.185 193.267,40.185 C192.992,40.185 192.849,40.382 192.771,40.514 C192.627,40.765 192.556,41.076 192.556,41.099 C192.556,41.165 192.609,41.189 192.663,41.189 C192.759,41.189 192.765,41.147 192.795,41.052 C192.92,40.555 193.064,40.382 193.249,40.382 C193.464,40.382 193.464,40.627 193.464,40.687 C193.464,40.789 193.458,40.807 193.446,40.86 z M193.895,41.022 C193.924,40.92 193.924,40.908 194.032,40.789 C194.223,40.573 194.51,40.382 194.791,40.382 C195.078,40.382 195.263,40.603 195.263,40.968 C195.263,41.171 195.144,41.835 194.911,42.199 C194.708,42.51 194.427,42.684 194.176,42.684 C193.727,42.684 193.608,42.217 193.608,42.169 C193.608,42.14 193.62,42.104 193.626,42.08 z" fill="#000000"/>
      <g>
        <path d="M207.489,39.508 C207.489,38.408 206.597,37.515 205.496,37.515 C204.396,37.515 203.504,38.408 203.504,39.508 C203.504,40.608 204.396,41.501 205.496,41.501 C206.597,41.501 207.489,40.608 207.489,39.508 z M205.496,39.508" fill="#6887FF"/>
        <path d="M207.489,39.508 C207.489,38.408 206.597,37.515 205.496,37.515 C204.396,37.515 203.504,38.408 203.504,39.508 C203.504,40.608 204.396,41.501 205.496,41.501 C206.597,41.501 207.489,40.608 207.489,39.508 z M205.496,39.508" fill-opacity="0" stroke="#6887FF" stroke-width="0.797"/>
      </g>
      <path d="M216.641,39.453 C215.35,40.072 214.722,41.13 214.722,41.793 C214.722,42.484 215.412,42.905 216.282,42.905 C217.806,42.905 219.044,41.48 219.044,41.3 C219.044,41.255 219.017,41.229 218.963,41.229 C218.882,41.229 218.506,41.327 218.273,41.641 C218.093,41.892 217.717,42.403 216.892,42.403 C216.237,42.403 215.502,42.089 215.502,41.399 C215.502,40.96 215.968,39.65 217.448,39.588 C217.896,39.57 218.21,39.229 218.21,39.148 C218.21,39.095 218.147,39.086 218.084,39.086 C216.946,39.032 216.551,38.53 216.551,38.054 C216.551,37.848 216.668,36.889 217.968,36.889 C218.21,36.889 218.847,36.925 218.847,37.391 C218.847,37.499 218.811,37.597 218.748,37.687 C218.703,37.768 218.703,37.785 218.703,37.803 C218.703,37.821 218.712,37.866 218.784,37.866 C219.008,37.866 219.627,37.543 219.627,36.996 C219.627,36.458 218.954,36.387 218.578,36.387 C217.322,36.387 215.771,37.373 215.771,38.449 C215.771,38.996 216.21,39.31 216.641,39.453 z" fill="#000000"/>
      <path d="M221.365,38.403 C221.312,38.618 221.3,38.66 220.851,38.66 C220.72,38.66 220.708,38.66 220.684,38.678 C220.654,38.702 220.63,38.779 220.63,38.815 C220.648,38.899 220.702,38.899 220.821,38.899 L223.069,38.899 C224.42,38.899 225.759,37.721 225.759,36.406 C225.759,35.456 225.065,34.816 224.085,34.816 L221.796,34.816 C221.676,34.816 221.592,34.816 221.592,34.966 C221.592,35.055 221.682,35.055 221.79,35.055 C221.897,35.055 222.047,35.055 222.172,35.097 C222.172,35.157 222.172,35.193 222.148,35.289 z M222.716,35.259 C222.764,35.067 222.764,35.055 223.021,35.055 L223.858,35.055 C224.557,35.055 225.167,35.39 225.167,36.215 C225.167,36.412 225.089,37.369 224.516,38.002 C224.205,38.349 223.661,38.66 222.961,38.66 L222.077,38.66 C221.963,38.66 221.951,38.66 221.879,38.642 z" fill="#000000"/>
      <path d="M228.875,35.259 C228.923,35.067 228.929,35.055 229.18,35.055 L229.766,35.055 C230.363,35.055 230.8,35.205 230.8,35.677 C230.8,35.886 230.71,36.317 230.298,36.55 C230.065,36.681 229.742,36.759 229.335,36.759 L228.498,36.759 z M230.1,36.867 C230.68,36.735 231.445,36.329 231.445,35.743 C231.445,35.247 230.818,34.816 229.885,34.816 L227.954,34.816 C227.841,34.816 227.751,34.816 227.751,34.966 C227.751,35.055 227.841,35.055 227.948,35.055 C228.056,35.055 228.205,35.055 228.331,35.097 C228.331,35.157 228.331,35.193 228.307,35.289 L227.524,38.403 C227.47,38.618 227.458,38.66 227.01,38.66 C226.878,38.66 226.867,38.66 226.843,38.678 C226.813,38.702 226.789,38.779 226.789,38.815 C226.795,38.839 226.801,38.899 226.89,38.899 C227.07,38.899 227.506,38.875 227.685,38.875 C228.05,38.875 227.662,38.875 228.098,38.881 C228.229,38.881 228.373,38.899 228.498,38.899 C228.534,38.899 228.576,38.899 228.6,38.857 C228.612,38.839 228.636,38.767 228.636,38.744 C228.618,38.66 228.564,38.66 228.427,38.66 C228.355,38.66 228.265,38.654 228.2,38.648 C228.092,38.636 228.05,38.636 228.05,38.57 C228.05,38.546 228.056,38.522 228.074,38.463 L228.451,36.956 L229.311,36.956 C229.837,36.956 230.1,37.195 230.1,37.482 C230.1,37.554 230.047,37.757 230.011,37.895 C229.945,38.17 229.921,38.253 229.921,38.361 C229.921,38.803 230.328,39.025 230.848,39.025 C231.409,39.025 231.673,38.457 231.673,38.319 C231.673,38.283 231.643,38.23 231.565,38.23 C231.481,38.23 231.463,38.277 231.451,38.319 C231.314,38.726 231.027,38.827 230.877,38.827 C230.716,38.827 230.585,38.767 230.585,38.415 C230.585,38.277 230.626,37.949 230.644,37.793 C230.65,37.733 230.668,37.608 230.668,37.56 C230.668,37.165 230.357,36.956 230.1,36.867 z" fill="#000000"/>
      <path d="M219.906,45.008 C219.864,45.164 219.858,45.206 219.601,45.206 C219.523,45.206 219.487,45.206 219.463,45.241 C219.452,45.265 219.428,45.343 219.428,45.361 C219.434,45.379 219.44,45.445 219.523,45.445 C219.691,45.445 219.888,45.421 220.061,45.421 C220.169,45.421 220.282,45.427 220.39,45.427 C220.492,45.427 220.611,45.445 220.713,45.445 C220.749,45.445 220.791,45.445 220.814,45.403 C220.826,45.385 220.85,45.313 220.85,45.289 C220.832,45.206 220.773,45.206 220.671,45.206 C220.527,45.206 220.372,45.206 220.372,45.134 C220.372,45.104 220.414,44.949 220.438,44.859 L220.653,43.986 C220.796,44.201 221.018,44.345 221.311,44.345 C222.1,44.345 222.907,43.52 222.907,42.665 C222.907,42.043 222.47,41.649 221.944,41.649 C221.46,41.649 221.083,42.037 221.054,42.073 C220.946,41.721 220.575,41.649 220.402,41.649 C220.127,41.649 219.984,41.846 219.906,41.978 C219.762,42.229 219.691,42.54 219.691,42.563 C219.691,42.629 219.744,42.653 219.798,42.653 C219.894,42.653 219.9,42.611 219.93,42.516 C220.055,42.019 220.199,41.846 220.384,41.846 C220.599,41.846 220.599,42.091 220.599,42.151 C220.599,42.253 220.593,42.271 220.581,42.324 z M221.03,42.486 C221.06,42.384 221.06,42.372 221.167,42.253 C221.358,42.037 221.645,41.846 221.926,41.846 C222.213,41.846 222.398,42.067 222.398,42.432 C222.398,42.635 222.279,43.299 222.046,43.663 C221.843,43.974 221.562,44.148 221.311,44.148 C220.862,44.148 220.743,43.681 220.743,43.633 C220.743,43.604 220.755,43.568 220.761,43.544 z" fill="#000000"/>
    </g>
  </g>
  <g id="Dots">
    <g id="01">
      <path d="M297.056,113.181 C297.056,112.081 296.164,111.188 295.064,111.188 C293.963,111.188 293.071,112.081 293.071,113.181 C293.071,114.281 293.963,115.174 295.064,115.174 C296.164,115.174 297.056,114.281 297.056,113.181 z M295.064,113.181" fill="#6887FF"/>
      <path d="M297.056,113.181 C297.056,112.081 296.164,111.188 295.064,111.188 C293.963,111.188 293.071,112.081 293.071,113.181 C293.071,114.281 293.963,115.174 295.064,115.174 C296.164,115.174 297.056,114.281 297.056,113.181 z M295.064,113.181" fill-opacity="0" stroke="#6887FF" stroke-width="0.797"/>
    </g>
    <g id="02">
      <path d="M296.766,113.687 C296.766,112.586 295.874,111.694 294.773,111.694 C293.673,111.694 292.781,112.586 292.781,113.687 C292.781,114.787 293.673,115.679 294.773,115.679 C295.874,115.679 296.766,114.787 296.766,113.687 z M294.773,113.687" fill="#6887FF"/>
      <path d="M296.766,113.687 C296.766,112.586 295.874,111.694 294.773,111.694 C293.673,111.694 292.781,112.586 292.781,113.687 C292.781,114.787 293.673,115.679 294.773,115.679 C295.874,115.679 296.766,114.787 296.766,113.687 z M294.773,113.687" fill-opacity="0" stroke="#6887FF" stroke-width="0.797"/>
    </g>
    <g id="03">
      <path d="M296.184,114.712 C296.184,113.612 295.292,112.72 294.191,112.72 C293.091,112.72 292.199,113.612 292.199,114.712 C292.199,115.813 293.091,116.705 294.191,116.705 C295.292,116.705 296.184,115.813 296.184,114.712 z M294.191,114.712" fill="#6887FF"/>
      <path d="M296.184,114.712 C296.184,113.612 295.292,112.72 294.191,112.72 C293.091,112.72 292.199,113.612 292.199,114.712 C292.199,115.813 293.091,116.705 294.191,116.705 C295.292,116.705 296.184,115.813 296.184,114.712 z M294.191,114.712" fill-opacity="0" stroke="#6887FF" stroke-width="0.797"/>
    </g>
    <g id="04">
      <path d="M295.306,116.286 C295.306,115.186 294.414,114.294 293.313,114.294 C292.213,114.294 291.321,115.186 291.321,116.286 C291.321,117.387 292.213,118.279 293.313,118.279 C294.414,118.279 295.306,117.387 295.306,116.286 z M293.313,116.286" fill="#6887FF"/>
      <path d="M295.306,116.286 C295.306,115.186 294.414,114.294 293.313,114.294 C292.213,114.294 291.321,115.186 291.321,116.286 C291.321,117.387 292.213,118.279 293.313,118.279 C294.414,118.279 295.306,117.387 295.306,116.286 z M293.313,116.286" fill-opacity="0" stroke="#6887FF" stroke-width="0.797"/>
    </g>
    <g id="05">
      <path d="M294.125,118.451 C294.125,117.35 293.233,116.458 292.133,116.458 C291.032,116.458 290.14,117.35 290.14,118.451 C290.14,119.551 291.032,120.443 292.133,120.443 C293.233,120.443 294.125,119.551 294.125,118.451 z M292.133,118.451" fill="#6887FF"/>
      <path d="M294.125,118.451 C294.125,117.35 293.233,116.458 292.133,116.458 C291.032,116.458 290.14,117.35 290.14,118.451 C290.14,119.551 291.032,120.443 292.133,120.443 C293.233,120.443 294.125,119.551 294.125,118.451 z M292.133,118.451" fill-opacity="0" stroke="#6887FF" stroke-width="0.797"/>
    </g>
    <g id="06">
      <path d="M292.635,121.262 C292.635,120.161 291.743,119.269 290.643,119.269 C289.542,119.269 288.65,120.161 288.65,121.262 C288.65,122.362 289.542,123.254 290.643,123.254 C291.743,123.254 292.635,122.362 292.635,121.262 z M290.643,121.262" fill="#6887FF"/>
      <path d="M292.635,121.262 C292.635,120.161 291.743,119.269 290.643,119.269 C289.542,119.269 288.65,120.161 288.65,121.262 C288.65,122.362 289.542,123.254 290.643,123.254 C291.743,123.254 292.635,122.362 292.635,121.262 z M290.643,121.262" fill-opacity="0" stroke="#6887FF" stroke-width="0.797"/>
    </g>
    <g id="07">
      <path d="M290.825,124.787 C290.825,123.686 289.933,122.794 288.833,122.794 C287.732,122.794 286.84,123.686 286.84,124.787 C286.84,125.887 287.732,126.78 288.833,126.78 C289.933,126.78 290.825,125.887 290.825,124.787 z M288.833,124.787" fill="#6887FF"/>
      <path d="M290.825,124.787 C290.825,123.686 289.933,122.794 288.833,122.794 C287.732,122.794 286.84,123.686 286.84,124.787 C286.84,125.887 287.732,126.78 288.833,126.78 C289.933,126.78 290.825,125.887 290.825,124.787 z M288.833,124.787" fill-opacity="0" stroke="#6887FF" stroke-width="0.797"/>
    </g>
    <g id="08">
      <path d="M288.685,129.105 C288.685,128.005 287.793,127.113 286.693,127.113 C285.592,127.113 284.7,128.005 284.7,129.105 C284.7,130.206 285.592,131.098 286.693,131.098 C287.793,131.098 288.685,130.206 288.685,129.105 z M286.693,129.105" fill="#6887FF"/>
      <path d="M288.685,129.105 C288.685,128.005 287.793,127.113 286.693,127.113 C285.592,127.113 284.7,128.005 284.7,129.105 C284.7,130.206 285.592,131.098 286.693,131.098 C287.793,131.098 288.685,130.206 288.685,129.105 z M286.693,129.105" fill-opacity="0" stroke="#6887FF" stroke-width="0.797"/>
    </g>
    <g id="09">
      <path d="M286.202,134.304 C286.202,133.203 285.31,132.311 284.209,132.311 C283.109,132.311 282.217,133.203 282.217,134.304 C282.217,135.404 283.109,136.296 284.209,136.296 C285.31,136.296 286.202,135.404 286.202,134.304 z M284.209,134.304" fill="#6887FF"/>
      <path d="M286.202,134.304 C286.202,133.203 285.31,132.311 284.209,132.311 C283.109,132.311 282.217,133.203 282.217,134.304 C282.217,135.404 283.109,136.296 284.209,136.296 C285.31,136.296 286.202,135.404 286.202,134.304 z M284.209,134.304" fill-opacity="0" stroke="#6887FF" stroke-width="0.797"/>
    </g>
    <g id="10">
      <path d="M283.363,140.471 C283.363,139.37 282.471,138.478 281.37,138.478 C280.27,138.478 279.378,139.37 279.378,140.471 C279.378,141.571 280.27,142.463 281.37,142.463 C282.471,142.463 283.363,141.571 283.363,140.471 z M281.37,140.471" fill="#6887FF"/>
      <path d="M283.363,140.471 C283.363,139.37 282.471,138.478 281.37,138.478 C280.27,138.478 279.378,139.37 279.378,140.471 C279.378,141.571 280.27,142.463 281.37,142.463 C282.471,142.463 283.363,141.571 283.363,140.471 z M281.37,140.471" fill-opacity="0" stroke="#6887FF" stroke-width="0.797"/>
    </g>
    <g id="11">
      <path d="M280.155,147.691 C280.155,146.59 279.263,145.698 278.163,145.698 C277.062,145.698 276.17,146.59 276.17,147.691 C276.17,148.791 277.062,149.683 278.163,149.683 C279.263,149.683 280.155,148.791 280.155,147.691 z M278.163,147.691" fill="#6887FF"/>
      <path d="M280.155,147.691 C280.155,146.59 279.263,145.698 278.163,145.698 C277.062,145.698 276.17,146.59 276.17,147.691 C276.17,148.791 277.062,149.683 278.163,149.683 C279.263,149.683 280.155,148.791 280.155,147.691 z M278.163,147.691" fill-opacity="0" stroke="#6887FF" stroke-width="0.797"/>
    </g>
    <g id="12">
      <path d="M276.565,156.035 C276.565,154.935 275.673,154.043 274.573,154.043 C273.472,154.043 272.58,154.935 272.58,156.035 C272.58,157.136 273.472,158.028 274.573,158.028 C275.673,158.028 276.565,157.136 276.565,156.035 z M274.573,156.035" fill="#6887FF"/>
      <path d="M276.565,156.035 C276.565,154.935 275.673,154.043 274.573,154.043 C273.472,154.043 272.58,154.935 272.58,156.035 C272.58,157.136 273.472,158.028 274.573,158.028 C275.673,158.028 276.565,157.136 276.565,156.035 z M274.573,156.035" fill-opacity="0" stroke="#6887FF" stroke-width="0.797"/>
    </g>
    <g id="13">
      <path d="M272.582,165.546 C272.582,164.446 271.69,163.553 270.589,163.553 C269.489,163.553 268.597,164.446 268.597,165.546 C268.597,166.646 269.489,167.539 270.589,167.539 C271.69,167.539 272.582,166.646 272.582,165.546 z M270.589,165.546" fill="#6887FF"/>
      <path d="M272.582,165.546 C272.582,164.446 271.69,163.553 270.589,163.553 C269.489,163.553 268.597,164.446 268.597,165.546 C268.597,166.646 269.489,167.539 270.589,167.539 C271.69,167.539 272.582,166.646 272.582,165.546 z M270.589,165.546" fill-opacity="0" stroke="#6887FF" stroke-width="0.797"/>
    </g>
    <g id="14">
      <path d="M268.196,176.221 C268.196,175.121 267.304,174.229 266.203,174.229 C265.103,174.229 264.211,175.121 264.211,176.221 C264.211,177.322 265.103,178.214 266.203,178.214 C267.304,178.214 268.196,177.322 268.196,176.221 z M266.203,176.221" fill="#6887FF"/>
      <path d="M268.196,176.221 C268.196,175.121 267.304,174.229 266.203,174.229 C265.103,174.229 264.211,175.121 264.211,176.221 C264.211,177.322 265.103,178.214 266.203,178.214 C267.304,178.214 268.196,177.322 268.196,176.221 z M266.203,176.221" fill-opacity="0" stroke="#6887FF" stroke-width="0.797"/>
    </g>
    <g id="15">
      <path d="M263.401,187.995 C263.401,186.894 262.509,186.002 261.408,186.002 C260.308,186.002 259.416,186.894 259.416,187.995 C259.416,189.095 260.308,189.987 261.408,189.987 C262.509,189.987 263.401,189.095 263.401,187.995 z M261.408,187.995" fill="#6887FF"/>
      <path d="M263.401,187.995 C263.401,186.894 262.509,186.002 261.408,186.002 C260.308,186.002 259.416,186.894 259.416,187.995 C259.416,189.095 260.308,189.987 261.408,189.987 C262.509,189.987 263.401,189.095 263.401,187.995 z M261.408,187.995" fill-opacity="0" stroke="#6887FF" stroke-width="0.797"/>
    </g>
    <g id="16">
      <path d="M258.196,200.715 C258.196,199.614 257.304,198.722 256.203,198.722 C255.103,198.722 254.211,199.614 254.211,200.715 C254.211,201.815 255.103,202.707 256.203,202.707 C257.304,202.707 258.196,201.815 258.196,200.715 z M256.203,200.715" fill="#6887FF"/>
      <path d="M258.196,200.715 C258.196,199.614 257.304,198.722 256.203,198.722 C255.103,198.722 254.211,199.614 254.211,200.715 C254.211,201.815 255.103,202.707 256.203,202.707 C257.304,202.707 258.196,201.815 258.196,200.715 z M256.203,200.715" fill-opacity="0" stroke="#6887FF" stroke-width="0.797"/>
    </g>
    <g id="17">
      <path d="M252.586,214.125 C252.586,213.024 251.694,212.132 250.594,212.132 C249.493,212.132 248.601,213.024 248.601,214.125 C248.601,215.225 249.493,216.117 250.594,216.117 C251.694,216.117 252.586,215.225 252.586,214.125 z M250.594,214.125" fill="#6887FF"/>
      <path d="M252.586,214.125 C252.586,213.024 251.694,212.132 250.594,212.132 C249.493,212.132 248.601,213.024 248.601,214.125 C248.601,215.225 249.493,216.117 250.594,216.117 C251.694,216.117 252.586,215.225 252.586,214.125 z M250.594,214.125" fill-opacity="0" stroke="#6887FF" stroke-width="0.797"/>
    </g>
    <g id="18">
      <path d="M246.585,227.852 C246.585,226.751 245.693,225.859 244.592,225.859 C243.492,225.859 242.6,226.751 242.6,227.852 C242.6,228.952 243.492,229.845 244.592,229.845 C245.693,229.845 246.585,228.952 246.585,227.852 z M244.592,227.852" fill="#6887FF"/>
      <path d="M246.585,227.852 C246.585,226.751 245.693,225.859 244.592,225.859 C243.492,225.859 242.6,226.751 242.6,227.852 C242.6,228.952 243.492,229.845 244.592,229.845 C245.693,229.845 246.585,228.952 246.585,227.852 z M244.592,227.852" fill-opacity="0" stroke="#6887FF" stroke-width="0.797"/>
    </g>
    <g id="19">
      <path d="M240.213,241.404 C240.213,240.304 239.321,239.412 238.22,239.412 C237.12,239.412 236.228,240.304 236.228,241.404 C236.228,242.505 237.12,243.397 238.22,243.397 C239.321,243.397 240.213,242.505 240.213,241.404 z M238.22,241.404" fill="#6887FF"/>
      <path d="M240.213,241.404 C240.213,240.304 239.321,239.412 238.22,239.412 C237.12,239.412 236.228,240.304 236.228,241.404 C236.228,242.505 237.12,243.397 238.22,243.397 C239.321,243.397 240.213,242.505 240.213,241.404 z M238.22,241.404" fill-opacity="0" stroke="#6887FF" stroke-width="0.797"/>
    </g>
    <g id="20">
      <path d="M233.503,254.187 C233.503,253.087 232.611,252.195 231.51,252.195 C230.41,252.195 229.518,253.087 229.518,254.187 C229.518,255.288 230.41,256.18 231.51,256.18 C232.611,256.18 233.503,255.288 233.503,254.187 z M231.51,254.187" fill="#6887FF"/>
      <path d="M233.503,254.187 C233.503,253.087 232.611,252.195 231.51,252.195 C230.41,252.195 229.518,253.087 229.518,254.187 C229.518,255.288 230.41,256.18 231.51,256.18 C232.611,256.18 233.503,255.288 233.503,254.187 z M231.51,254.187" fill-opacity="0" stroke="#6887FF" stroke-width="0.797"/>
    </g>
    <g id="21">
      <path d="M226.497,265.542 C226.497,264.442 225.605,263.55 224.504,263.55 C223.404,263.55 222.512,264.442 222.512,265.542 C222.512,266.643 223.404,267.535 224.504,267.535 C225.605,267.535 226.497,266.643 226.497,265.542 z M224.504,265.542" fill="#6887FF"/>
      <path d="M226.497,265.542 C226.497,264.442 225.605,263.55 224.504,263.55 C223.404,263.55 222.512,264.442 222.512,265.542 C222.512,266.643 223.404,267.535 224.504,267.535 C225.605,267.535 226.497,266.643 226.497,265.542 z M224.504,265.542" fill-opacity="0" stroke="#6887FF" stroke-width="0.797"/>
    </g>
    <g id="22">
      <path d="M219.247,274.803 C219.247,273.703 218.355,272.811 217.254,272.811 C216.154,272.811 215.262,273.703 215.262,274.803 C215.262,275.904 216.154,276.796 217.254,276.796 C218.355,276.796 219.247,275.904 219.247,274.803 z M217.254,274.803" fill="#6887FF"/>
      <path d="M219.247,274.803 C219.247,273.703 218.355,272.811 217.254,272.811 C216.154,272.811 215.262,273.703 215.262,274.803 C215.262,275.904 216.154,276.796 217.254,276.796 C218.355,276.796 219.247,275.904 219.247,274.803 z M217.254,274.803" fill-opacity="0" stroke="#6887FF" stroke-width="0.797"/>
    </g>
    <g id="23">
      <path d="M211.815,281.372 C211.815,280.271 210.923,279.379 209.823,279.379 C208.722,279.379 207.83,280.271 207.83,281.372 C207.83,282.472 208.722,283.364 209.823,283.364 C210.923,283.364 211.815,282.472 211.815,281.372 z M209.823,281.372" fill="#6887FF"/>
      <path d="M211.815,281.372 C211.815,280.271 210.923,279.379 209.823,279.379 C208.722,279.379 207.83,280.271 207.83,281.372 C207.83,282.472 208.722,283.364 209.823,283.364 C210.923,283.364 211.815,282.472 211.815,281.372 z M209.823,281.372" fill-opacity="0" stroke="#6887FF" stroke-width="0.797"/>
    </g>
    <g id="24">
      <path d="M204.271,284.793 C204.271,283.693 203.379,282.801 202.279,282.801 C201.178,282.801 200.286,283.693 200.286,284.793 C200.286,285.894 201.178,286.786 202.279,286.786 C203.379,286.786 204.271,285.894 204.271,284.793 z M202.279,284.793" fill="#6887FF"/>
      <path d="M204.271,284.793 C204.271,283.693 203.379,282.801 202.279,282.801 C201.178,282.801 200.286,283.693 200.286,284.793 C200.286,285.894 201.178,286.786 202.279,286.786 C203.379,286.786 204.271,285.894 204.271,284.793 z M202.279,284.793" fill-opacity="0" stroke="#6887FF" stroke-width="0.797"/>
    </g>
    <g id="25">
      <path d="M196.689,284.821 C196.689,283.72 195.797,282.828 194.696,282.828 C193.596,282.828 192.704,283.72 192.704,284.821 C192.704,285.921 193.596,286.813 194.696,286.813 C195.797,286.813 196.689,285.921 196.689,284.821 z M194.696,284.821" fill="#6887FF"/>
      <path d="M196.689,284.821 C196.689,283.72 195.797,282.828 194.696,282.828 C193.596,282.828 192.704,283.72 192.704,284.821 C192.704,285.921 193.596,286.813 194.696,286.813 C195.797,286.813 196.689,285.921 196.689,284.821 z M194.696,284.821" fill-opacity="0" stroke="#6887FF" stroke-width="0.797"/>
    </g>
  </g>
</svg>
